<mxfile host="65bd71144e">
    <diagram id="-w8lgoWKhxKqaeMC1sOl" name="Page-1">
        <mxGraphModel dx="1617" dy="373" grid="1" gridSize="10" guides="1" tooltips="1" connect="0" arrows="1" fold="1" page="1" pageScale="1" pageWidth="827" pageHeight="1169" math="0" shadow="0">
            <root>
                <mxCell id="0"/>
                <mxCell id="1" parent="0"/>
                <mxCell id="8kWdG6IfSFevc6JksFCI-1" value="&lt;font style=&quot;font-size: 36px;&quot;&gt;IF&lt;/font&gt;" style="rounded=0;whiteSpace=wrap;html=1;" parent="1" vertex="1">
                    <mxGeometry x="100" y="220" width="120" height="60" as="geometry"/>
                </mxCell>
                <mxCell id="8kWdG6IfSFevc6JksFCI-2" value="&lt;font style=&quot;font-size: 36px;&quot;&gt;ID&lt;/font&gt;" style="rounded=0;whiteSpace=wrap;html=1;" parent="1" vertex="1">
                    <mxGeometry x="220" y="220" width="120" height="60" as="geometry"/>
                </mxCell>
                <mxCell id="8kWdG6IfSFevc6JksFCI-3" value="&lt;font style=&quot;font-size: 36px;&quot;&gt;EX&lt;/font&gt;" style="rounded=0;whiteSpace=wrap;html=1;" parent="1" vertex="1">
                    <mxGeometry x="340" y="220" width="120" height="60" as="geometry"/>
                </mxCell>
                <mxCell id="8kWdG6IfSFevc6JksFCI-4" value="&lt;font style=&quot;font-size: 36px;&quot;&gt;MEM&lt;/font&gt;" style="rounded=0;whiteSpace=wrap;html=1;" parent="1" vertex="1">
                    <mxGeometry x="460" y="220" width="120" height="60" as="geometry"/>
                </mxCell>
                <mxCell id="8kWdG6IfSFevc6JksFCI-5" value="&lt;font style=&quot;font-size: 36px;&quot;&gt;WB&lt;/font&gt;" style="rounded=0;whiteSpace=wrap;html=1;" parent="1" vertex="1">
                    <mxGeometry x="580" y="220" width="120" height="60" as="geometry"/>
                </mxCell>
                <mxCell id="8kWdG6IfSFevc6JksFCI-6" value="" style="rounded=0;whiteSpace=wrap;html=1;" parent="1" vertex="1">
                    <mxGeometry x="700" y="220" width="120" height="60" as="geometry"/>
                </mxCell>
                <mxCell id="8kWdG6IfSFevc6JksFCI-7" value="" style="rounded=0;whiteSpace=wrap;html=1;" parent="1" vertex="1">
                    <mxGeometry x="820" y="220" width="120" height="60" as="geometry"/>
                </mxCell>
                <mxCell id="8kWdG6IfSFevc6JksFCI-8" value="" style="rounded=0;whiteSpace=wrap;html=1;" parent="1" vertex="1">
                    <mxGeometry x="940" y="220" width="120" height="60" as="geometry"/>
                </mxCell>
                <mxCell id="8kWdG6IfSFevc6JksFCI-9" value="" style="rounded=0;whiteSpace=wrap;html=1;" parent="1" vertex="1">
                    <mxGeometry x="1060" y="220" width="120" height="60" as="geometry"/>
                </mxCell>
                <mxCell id="8kWdG6IfSFevc6JksFCI-10" value="" style="rounded=0;whiteSpace=wrap;html=1;" parent="1" vertex="1">
                    <mxGeometry x="1180" y="220" width="120" height="60" as="geometry"/>
                </mxCell>
                <mxCell id="8kWdG6IfSFevc6JksFCI-35" value="&lt;span style=&quot;font-size: 36px;&quot;&gt;IF&lt;/span&gt;" style="rounded=0;whiteSpace=wrap;html=1;" parent="1" vertex="1">
                    <mxGeometry x="460" y="400" width="120" height="60" as="geometry"/>
                </mxCell>
                <mxCell id="8kWdG6IfSFevc6JksFCI-36" value="&lt;span style=&quot;font-size: 36px;&quot;&gt;ID&lt;/span&gt;" style="rounded=0;whiteSpace=wrap;html=1;" parent="1" vertex="1">
                    <mxGeometry x="580" y="400" width="120" height="60" as="geometry"/>
                </mxCell>
                <mxCell id="8kWdG6IfSFevc6JksFCI-37" value="&lt;span style=&quot;font-size: 36px;&quot;&gt;EX&lt;/span&gt;" style="rounded=0;whiteSpace=wrap;html=1;" parent="1" vertex="1">
                    <mxGeometry x="700" y="400" width="120" height="60" as="geometry"/>
                </mxCell>
                <mxCell id="8kWdG6IfSFevc6JksFCI-38" value="&lt;span style=&quot;font-size: 36px;&quot;&gt;MEM&lt;/span&gt;" style="rounded=0;whiteSpace=wrap;html=1;" parent="1" vertex="1">
                    <mxGeometry x="820" y="400" width="120" height="60" as="geometry"/>
                </mxCell>
                <mxCell id="8kWdG6IfSFevc6JksFCI-39" value="&lt;span style=&quot;font-size: 36px;&quot;&gt;WB&lt;/span&gt;" style="rounded=0;whiteSpace=wrap;html=1;" parent="1" vertex="1">
                    <mxGeometry x="940" y="400" width="120" height="60" as="geometry"/>
                </mxCell>
                <mxCell id="8kWdG6IfSFevc6JksFCI-40" value="" style="rounded=0;whiteSpace=wrap;html=1;" parent="1" vertex="1">
                    <mxGeometry x="1060" y="400" width="120" height="60" as="geometry"/>
                </mxCell>
                <mxCell id="8kWdG6IfSFevc6JksFCI-41" value="" style="rounded=0;whiteSpace=wrap;html=1;" parent="1" vertex="1">
                    <mxGeometry x="1180" y="400" width="120" height="60" as="geometry"/>
                </mxCell>
                <mxCell id="8kWdG6IfSFevc6JksFCI-44" value="&lt;span style=&quot;font-size: 36px;&quot;&gt;IF&lt;/span&gt;" style="rounded=0;whiteSpace=wrap;html=1;" parent="1" vertex="1">
                    <mxGeometry x="580" y="460" width="120" height="60" as="geometry"/>
                </mxCell>
                <mxCell id="8kWdG6IfSFevc6JksFCI-45" value="&lt;span style=&quot;font-size: 36px;&quot;&gt;ID&lt;/span&gt;" style="rounded=0;whiteSpace=wrap;html=1;" parent="1" vertex="1">
                    <mxGeometry x="700" y="460" width="120" height="60" as="geometry"/>
                </mxCell>
                <mxCell id="8kWdG6IfSFevc6JksFCI-46" value="&lt;span style=&quot;font-size: 36px;&quot;&gt;EX&lt;/span&gt;" style="rounded=0;whiteSpace=wrap;html=1;" parent="1" vertex="1">
                    <mxGeometry x="820" y="460" width="120" height="60" as="geometry"/>
                </mxCell>
                <mxCell id="8kWdG6IfSFevc6JksFCI-47" value="&lt;span style=&quot;font-size: 36px;&quot;&gt;MEM&lt;/span&gt;" style="rounded=0;whiteSpace=wrap;html=1;" parent="1" vertex="1">
                    <mxGeometry x="940" y="460" width="120" height="60" as="geometry"/>
                </mxCell>
                <mxCell id="8kWdG6IfSFevc6JksFCI-48" value="&lt;span style=&quot;font-size: 36px;&quot;&gt;WB&lt;/span&gt;" style="rounded=0;whiteSpace=wrap;html=1;" parent="1" vertex="1">
                    <mxGeometry x="1060" y="460" width="120" height="60" as="geometry"/>
                </mxCell>
                <mxCell id="8kWdG6IfSFevc6JksFCI-49" value="" style="rounded=0;whiteSpace=wrap;html=1;" parent="1" vertex="1">
                    <mxGeometry x="1180" y="460" width="120" height="60" as="geometry"/>
                </mxCell>
                <mxCell id="8kWdG6IfSFevc6JksFCI-52" value="&lt;span style=&quot;font-size: 36px;&quot;&gt;IF&lt;/span&gt;" style="rounded=0;whiteSpace=wrap;html=1;" parent="1" vertex="1">
                    <mxGeometry x="700" y="520" width="120" height="60" as="geometry"/>
                </mxCell>
                <mxCell id="8kWdG6IfSFevc6JksFCI-53" value="&lt;span style=&quot;font-size: 36px;&quot;&gt;ID&lt;/span&gt;" style="rounded=0;whiteSpace=wrap;html=1;" parent="1" vertex="1">
                    <mxGeometry x="820" y="520" width="120" height="60" as="geometry"/>
                </mxCell>
                <mxCell id="8kWdG6IfSFevc6JksFCI-54" value="&lt;span style=&quot;font-size: 36px;&quot;&gt;EX&lt;/span&gt;" style="rounded=0;whiteSpace=wrap;html=1;" parent="1" vertex="1">
                    <mxGeometry x="940" y="520" width="120" height="60" as="geometry"/>
                </mxCell>
                <mxCell id="8kWdG6IfSFevc6JksFCI-55" value="&lt;span style=&quot;font-size: 36px;&quot;&gt;MEM&lt;/span&gt;" style="rounded=0;whiteSpace=wrap;html=1;" parent="1" vertex="1">
                    <mxGeometry x="1060" y="520" width="120" height="60" as="geometry"/>
                </mxCell>
                <mxCell id="8kWdG6IfSFevc6JksFCI-56" value="&lt;span style=&quot;font-size: 36px;&quot;&gt;WB&lt;/span&gt;" style="rounded=0;whiteSpace=wrap;html=1;" parent="1" vertex="1">
                    <mxGeometry x="1180" y="520" width="120" height="60" as="geometry"/>
                </mxCell>
                <mxCell id="8kWdG6IfSFevc6JksFCI-60" value="&lt;font style=&quot;font-size: 36px;&quot;&gt;-&lt;/font&gt;" style="rounded=0;whiteSpace=wrap;html=1;" parent="1" vertex="1">
                    <mxGeometry x="340" y="400" width="120" height="60" as="geometry"/>
                </mxCell>
                <mxCell id="8kWdG6IfSFevc6JksFCI-61" value="&lt;font style=&quot;font-size: 36px;&quot;&gt;-&lt;/font&gt;" style="rounded=0;whiteSpace=wrap;html=1;" parent="1" vertex="1">
                    <mxGeometry x="460" y="460" width="120" height="60" as="geometry"/>
                </mxCell>
                <mxCell id="8kWdG6IfSFevc6JksFCI-62" value="&lt;font style=&quot;font-size: 36px;&quot;&gt;-&lt;/font&gt;" style="rounded=0;whiteSpace=wrap;html=1;" parent="1" vertex="1">
                    <mxGeometry x="580" y="520" width="120" height="60" as="geometry"/>
                </mxCell>
                <mxCell id="8kWdG6IfSFevc6JksFCI-64" value="&lt;font style=&quot;font-size: 36px;&quot;&gt;-&lt;/font&gt;" style="rounded=0;whiteSpace=wrap;html=1;" parent="1" vertex="1">
                    <mxGeometry x="100" y="400" width="120" height="60" as="geometry"/>
                </mxCell>
                <mxCell id="8kWdG6IfSFevc6JksFCI-65" value="&lt;font style=&quot;font-size: 36px;&quot;&gt;-&lt;/font&gt;" style="rounded=0;whiteSpace=wrap;html=1;" parent="1" vertex="1">
                    <mxGeometry x="100" y="460" width="120" height="60" as="geometry"/>
                </mxCell>
                <mxCell id="8kWdG6IfSFevc6JksFCI-66" value="&lt;font style=&quot;font-size: 36px;&quot;&gt;-&lt;/font&gt;" style="rounded=0;whiteSpace=wrap;html=1;" parent="1" vertex="1">
                    <mxGeometry x="220" y="400" width="120" height="60" as="geometry"/>
                </mxCell>
                <mxCell id="8kWdG6IfSFevc6JksFCI-67" value="&lt;font style=&quot;font-size: 36px;&quot;&gt;-&lt;/font&gt;" style="rounded=0;whiteSpace=wrap;html=1;" parent="1" vertex="1">
                    <mxGeometry x="220" y="460" width="120" height="60" as="geometry"/>
                </mxCell>
                <mxCell id="8kWdG6IfSFevc6JksFCI-68" value="&lt;font style=&quot;font-size: 36px;&quot;&gt;-&lt;/font&gt;" style="rounded=0;whiteSpace=wrap;html=1;" parent="1" vertex="1">
                    <mxGeometry x="340" y="460" width="120" height="60" as="geometry"/>
                </mxCell>
                <mxCell id="8kWdG6IfSFevc6JksFCI-69" value="&lt;font style=&quot;font-size: 36px;&quot;&gt;-&lt;/font&gt;" style="rounded=0;whiteSpace=wrap;html=1;" parent="1" vertex="1">
                    <mxGeometry x="340" y="520" width="120" height="60" as="geometry"/>
                </mxCell>
                <mxCell id="8kWdG6IfSFevc6JksFCI-70" value="&lt;font style=&quot;font-size: 36px;&quot;&gt;-&lt;/font&gt;" style="rounded=0;whiteSpace=wrap;html=1;" parent="1" vertex="1">
                    <mxGeometry x="100" y="520" width="120" height="60" as="geometry"/>
                </mxCell>
                <mxCell id="8kWdG6IfSFevc6JksFCI-71" value="&lt;font style=&quot;font-size: 36px;&quot;&gt;-&lt;/font&gt;" style="rounded=0;whiteSpace=wrap;html=1;" parent="1" vertex="1">
                    <mxGeometry x="220" y="520" width="120" height="60" as="geometry"/>
                </mxCell>
                <mxCell id="8kWdG6IfSFevc6JksFCI-72" value="&lt;font style=&quot;font-size: 36px;&quot;&gt;-&lt;/font&gt;" style="rounded=0;whiteSpace=wrap;html=1;" parent="1" vertex="1">
                    <mxGeometry x="460" y="520" width="120" height="60" as="geometry"/>
                </mxCell>
                <mxCell id="8kWdG6IfSFevc6JksFCI-73" value="&lt;span style=&quot;font-size: 36px;&quot;&gt;CC7&lt;/span&gt;" style="rounded=0;whiteSpace=wrap;html=1;" parent="1" vertex="1">
                    <mxGeometry x="820" y="160" width="120" height="60" as="geometry"/>
                </mxCell>
                <mxCell id="8kWdG6IfSFevc6JksFCI-74" value="&lt;span style=&quot;font-size: 36px;&quot;&gt;CC8&lt;/span&gt;" style="rounded=0;whiteSpace=wrap;html=1;" parent="1" vertex="1">
                    <mxGeometry x="940" y="160" width="120" height="60" as="geometry"/>
                </mxCell>
                <mxCell id="8kWdG6IfSFevc6JksFCI-75" value="&lt;span style=&quot;font-size: 36px;&quot;&gt;CC9&lt;br&gt;&lt;/span&gt;" style="rounded=0;whiteSpace=wrap;html=1;" parent="1" vertex="1">
                    <mxGeometry x="1060" y="160" width="120" height="60" as="geometry"/>
                </mxCell>
                <mxCell id="8kWdG6IfSFevc6JksFCI-76" value="&lt;span style=&quot;font-size: 36px;&quot;&gt;CC10&lt;/span&gt;" style="rounded=0;whiteSpace=wrap;html=1;" parent="1" vertex="1">
                    <mxGeometry x="1180" y="160" width="120" height="60" as="geometry"/>
                </mxCell>
                <mxCell id="8kWdG6IfSFevc6JksFCI-79" value="&lt;font style=&quot;font-size: 36px;&quot;&gt;CC6&lt;/font&gt;" style="rounded=0;whiteSpace=wrap;html=1;" parent="1" vertex="1">
                    <mxGeometry x="700" y="160" width="120" height="60" as="geometry"/>
                </mxCell>
                <mxCell id="8kWdG6IfSFevc6JksFCI-80" value="&lt;font style=&quot;font-size: 36px;&quot;&gt;CC1&lt;/font&gt;" style="rounded=0;whiteSpace=wrap;html=1;" parent="1" vertex="1">
                    <mxGeometry x="100" y="160" width="120" height="60" as="geometry"/>
                </mxCell>
                <mxCell id="8kWdG6IfSFevc6JksFCI-81" value="&lt;font style=&quot;font-size: 36px;&quot;&gt;CC2&lt;/font&gt;" style="rounded=0;whiteSpace=wrap;html=1;" parent="1" vertex="1">
                    <mxGeometry x="220" y="160" width="120" height="60" as="geometry"/>
                </mxCell>
                <mxCell id="8kWdG6IfSFevc6JksFCI-82" value="&lt;font style=&quot;font-size: 36px;&quot;&gt;CC4&lt;/font&gt;" style="rounded=0;whiteSpace=wrap;html=1;" parent="1" vertex="1">
                    <mxGeometry x="460" y="160" width="120" height="60" as="geometry"/>
                </mxCell>
                <mxCell id="8kWdG6IfSFevc6JksFCI-83" value="&lt;font style=&quot;font-size: 36px;&quot;&gt;CC3&lt;/font&gt;" style="rounded=0;whiteSpace=wrap;html=1;" parent="1" vertex="1">
                    <mxGeometry x="340" y="160" width="120" height="60" as="geometry"/>
                </mxCell>
                <mxCell id="8kWdG6IfSFevc6JksFCI-84" value="&lt;font style=&quot;font-size: 36px;&quot;&gt;CC5&lt;/font&gt;" style="rounded=0;whiteSpace=wrap;html=1;" parent="1" vertex="1">
                    <mxGeometry x="580" y="160" width="120" height="60" as="geometry"/>
                </mxCell>
                <mxCell id="8kWdG6IfSFevc6JksFCI-85" value="LW R1, 0(R2)&amp;nbsp;" style="rounded=0;whiteSpace=wrap;html=1;" parent="1" vertex="1">
                    <mxGeometry x="-20" y="220" width="120" height="60" as="geometry"/>
                </mxCell>
                <mxCell id="8kWdG6IfSFevc6JksFCI-88" value="ADD R2, R1, R2" style="rounded=0;whiteSpace=wrap;html=1;" parent="1" vertex="1">
                    <mxGeometry x="-20" y="400" width="120" height="60" as="geometry"/>
                </mxCell>
                <mxCell id="8kWdG6IfSFevc6JksFCI-89" value="ADD R1, R1, R2" style="rounded=0;whiteSpace=wrap;html=1;" parent="1" vertex="1">
                    <mxGeometry x="-20" y="460" width="120" height="60" as="geometry"/>
                </mxCell>
                <mxCell id="8kWdG6IfSFevc6JksFCI-90" value="ADD R3, R1, R2" style="rounded=0;whiteSpace=wrap;html=1;" parent="1" vertex="1">
                    <mxGeometry x="-20" y="520" width="120" height="60" as="geometry"/>
                </mxCell>
                <mxCell id="8kWdG6IfSFevc6JksFCI-91" value="&lt;font size=&quot;3&quot;&gt;INSTRUCTION&lt;/font&gt;" style="rounded=0;whiteSpace=wrap;html=1;" parent="1" vertex="1">
                    <mxGeometry x="-20" y="160" width="120" height="60" as="geometry"/>
                </mxCell>
                <mxCell id="8kWdG6IfSFevc6JksFCI-96" value="&lt;font style=&quot;font-size: 36px;&quot;&gt;-&lt;/font&gt;" style="rounded=0;whiteSpace=wrap;html=1;" parent="1" vertex="1">
                    <mxGeometry x="100" y="340" width="120" height="60" as="geometry"/>
                </mxCell>
                <mxCell id="8kWdG6IfSFevc6JksFCI-97" value="&lt;span style=&quot;font-size: 36px;&quot;&gt;-&lt;/span&gt;" style="rounded=0;whiteSpace=wrap;html=1;" parent="1" vertex="1">
                    <mxGeometry x="220" y="340" width="120" height="60" as="geometry"/>
                </mxCell>
                <mxCell id="8kWdG6IfSFevc6JksFCI-98" value="&lt;span style=&quot;font-size: 36px;&quot;&gt;IF&lt;/span&gt;" style="rounded=0;whiteSpace=wrap;html=1;" parent="1" vertex="1">
                    <mxGeometry x="340" y="340" width="120" height="60" as="geometry"/>
                </mxCell>
                <mxCell id="8kWdG6IfSFevc6JksFCI-99" value="&lt;span style=&quot;font-size: 36px;&quot;&gt;ID&lt;/span&gt;" style="rounded=0;whiteSpace=wrap;html=1;" parent="1" vertex="1">
                    <mxGeometry x="460" y="340" width="120" height="60" as="geometry"/>
                </mxCell>
                <mxCell id="8kWdG6IfSFevc6JksFCI-100" value="&lt;span style=&quot;font-size: 36px;&quot;&gt;EX&lt;/span&gt;" style="rounded=0;whiteSpace=wrap;html=1;" parent="1" vertex="1">
                    <mxGeometry x="580" y="340" width="120" height="60" as="geometry"/>
                </mxCell>
                <mxCell id="8kWdG6IfSFevc6JksFCI-101" value="&lt;span style=&quot;font-size: 36px;&quot;&gt;MEM&lt;/span&gt;" style="rounded=0;whiteSpace=wrap;html=1;" parent="1" vertex="1">
                    <mxGeometry x="700" y="340" width="120" height="60" as="geometry"/>
                </mxCell>
                <mxCell id="8kWdG6IfSFevc6JksFCI-102" value="&lt;span style=&quot;font-size: 36px;&quot;&gt;WB&lt;/span&gt;" style="rounded=0;whiteSpace=wrap;html=1;" parent="1" vertex="1">
                    <mxGeometry x="820" y="340" width="120" height="60" as="geometry"/>
                </mxCell>
                <mxCell id="8kWdG6IfSFevc6JksFCI-103" value="" style="rounded=0;whiteSpace=wrap;html=1;" parent="1" vertex="1">
                    <mxGeometry x="940" y="340" width="120" height="60" as="geometry"/>
                </mxCell>
                <mxCell id="8kWdG6IfSFevc6JksFCI-104" value="" style="rounded=0;whiteSpace=wrap;html=1;" parent="1" vertex="1">
                    <mxGeometry x="1060" y="340" width="120" height="60" as="geometry"/>
                </mxCell>
                <mxCell id="8kWdG6IfSFevc6JksFCI-105" value="" style="rounded=0;whiteSpace=wrap;html=1;" parent="1" vertex="1">
                    <mxGeometry x="1180" y="340" width="120" height="60" as="geometry"/>
                </mxCell>
                <mxCell id="8kWdG6IfSFevc6JksFCI-108" value="SUB R3, R3, R2&amp;nbsp;" style="rounded=0;whiteSpace=wrap;html=1;" parent="1" vertex="1">
                    <mxGeometry x="-20" y="340" width="120" height="60" as="geometry"/>
                </mxCell>
                <mxCell id="8kWdG6IfSFevc6JksFCI-109" value="&lt;span style=&quot;font-size: 36px;&quot;&gt;ID&lt;/span&gt;" style="rounded=0;whiteSpace=wrap;html=1;" parent="1" vertex="1">
                    <mxGeometry x="340" y="280" width="120" height="60" as="geometry"/>
                </mxCell>
                <mxCell id="8kWdG6IfSFevc6JksFCI-110" value="&lt;span style=&quot;font-size: 36px;&quot;&gt;EX&lt;/span&gt;" style="rounded=0;whiteSpace=wrap;html=1;" parent="1" vertex="1">
                    <mxGeometry x="460" y="280" width="120" height="60" as="geometry"/>
                </mxCell>
                <mxCell id="8kWdG6IfSFevc6JksFCI-112" value="&lt;span style=&quot;font-size: 36px;&quot;&gt;MEM&lt;/span&gt;" style="rounded=0;whiteSpace=wrap;html=1;" parent="1" vertex="1">
                    <mxGeometry x="580" y="280" width="120" height="60" as="geometry"/>
                </mxCell>
                <mxCell id="8kWdG6IfSFevc6JksFCI-113" value="&lt;span style=&quot;font-size: 36px;&quot;&gt;WB&lt;/span&gt;" style="rounded=0;whiteSpace=wrap;html=1;" parent="1" vertex="1">
                    <mxGeometry x="700" y="280" width="120" height="60" as="geometry"/>
                </mxCell>
                <mxCell id="8kWdG6IfSFevc6JksFCI-114" value="" style="rounded=0;whiteSpace=wrap;html=1;" parent="1" vertex="1">
                    <mxGeometry x="820" y="280" width="120" height="60" as="geometry"/>
                </mxCell>
                <mxCell id="8kWdG6IfSFevc6JksFCI-115" value="" style="rounded=0;whiteSpace=wrap;html=1;" parent="1" vertex="1">
                    <mxGeometry x="1060" y="280" width="120" height="60" as="geometry"/>
                </mxCell>
                <mxCell id="8kWdG6IfSFevc6JksFCI-116" value="" style="rounded=0;whiteSpace=wrap;html=1;" parent="1" vertex="1">
                    <mxGeometry x="1180" y="280" width="120" height="60" as="geometry"/>
                </mxCell>
                <mxCell id="8kWdG6IfSFevc6JksFCI-119" value="&lt;span style=&quot;font-size: 36px;&quot;&gt;IF&lt;/span&gt;" style="rounded=0;whiteSpace=wrap;html=1;" parent="1" vertex="1">
                    <mxGeometry x="220" y="280" width="120" height="60" as="geometry"/>
                </mxCell>
                <mxCell id="8kWdG6IfSFevc6JksFCI-120" value="&lt;font style=&quot;font-size: 36px;&quot;&gt;-&lt;/font&gt;" style="rounded=0;whiteSpace=wrap;html=1;" parent="1" vertex="1">
                    <mxGeometry x="100" y="280" width="120" height="60" as="geometry"/>
                </mxCell>
                <mxCell id="8kWdG6IfSFevc6JksFCI-121" value="ADD R1, R1, R2" style="rounded=0;whiteSpace=wrap;html=1;" parent="1" vertex="1">
                    <mxGeometry x="-20" y="280" width="120" height="60" as="geometry"/>
                </mxCell>
                <mxCell id="8kWdG6IfSFevc6JksFCI-122" value="" style="rounded=0;whiteSpace=wrap;html=1;" parent="1" vertex="1">
                    <mxGeometry x="940" y="280" width="120" height="60" as="geometry"/>
                </mxCell>
                <mxCell id="2" value="R1=5, R2=3, R3=1" style="rounded=0;whiteSpace=wrap;html=1;" parent="1" vertex="1">
                    <mxGeometry x="-20" y="100" width="120" height="60" as="geometry"/>
                </mxCell>
                <mxCell id="3" value="R1=5, R2=3, R3=1" style="rounded=0;whiteSpace=wrap;html=1;" parent="1" vertex="1">
                    <mxGeometry x="100" y="100" width="120" height="60" as="geometry"/>
                </mxCell>
                <mxCell id="4" value="R1=5, R2=3, R3=1" style="rounded=0;whiteSpace=wrap;html=1;" parent="1" vertex="1">
                    <mxGeometry x="220" y="100" width="120" height="60" as="geometry"/>
                </mxCell>
                <mxCell id="5" value="R1=5, R2=3, R3=1" style="rounded=0;whiteSpace=wrap;html=1;" parent="1" vertex="1">
                    <mxGeometry x="340" y="100" width="120" height="60" as="geometry"/>
                </mxCell>
                <mxCell id="6" value="R1=5, R2=3, R3=1" style="rounded=0;whiteSpace=wrap;html=1;" parent="1" vertex="1">
                    <mxGeometry x="460" y="100" width="120" height="60" as="geometry"/>
                </mxCell>
                <mxCell id="7" value="R1=5, R2=3, R3=1" style="rounded=0;whiteSpace=wrap;html=1;" parent="1" vertex="1">
                    <mxGeometry x="580" y="100" width="120" height="60" as="geometry"/>
                </mxCell>
                <mxCell id="8" value="R1=2, R2=3, R3=1" style="rounded=0;whiteSpace=wrap;html=1;" parent="1" vertex="1">
                    <mxGeometry x="700" y="100" width="120" height="60" as="geometry"/>
                </mxCell>
                <mxCell id="9" value="R1=8, R2=3, R3=1" style="rounded=0;whiteSpace=wrap;html=1;" parent="1" vertex="1">
                    <mxGeometry x="820" y="100" width="120" height="60" as="geometry"/>
                </mxCell>
                <mxCell id="10" value="R1=8, R2=3, R3=-2" style="rounded=0;whiteSpace=wrap;html=1;" parent="1" vertex="1">
                    <mxGeometry x="940" y="100" width="120" height="60" as="geometry"/>
                </mxCell>
                <mxCell id="11" value="&lt;span&gt;R1=8, R2=5, R3=-2&lt;/span&gt;" style="rounded=0;whiteSpace=wrap;html=1;" parent="1" vertex="1">
                    <mxGeometry x="1060" y="100" width="120" height="60" as="geometry"/>
                </mxCell>
                <mxCell id="12" value="&lt;span&gt;R1=11, R2=5, R3=-2&lt;/span&gt;" style="rounded=0;whiteSpace=wrap;html=1;" parent="1" vertex="1">
                    <mxGeometry x="1180" y="100" width="120" height="60" as="geometry"/>
                </mxCell>
                <mxCell id="14" value="&lt;span&gt;R1=11, R2=5, R3=11&lt;/span&gt;" style="rounded=0;whiteSpace=wrap;html=1;" parent="1" vertex="1">
                    <mxGeometry x="1300" y="100" width="120" height="60" as="geometry"/>
                </mxCell>
            </root>
        </mxGraphModel>
    </diagram>
</mxfile>